<svg width="40" height="40" viewBox="0 0 40 40" fill="none" xmlns="http://www.w3.org/2000/svg">
<path d="M19.6058 4C20.5871 4.00124 21.3845 4.80907 21.3846 5.8054V18.9122C21.3937 19.1532 21.5878 19.3459 21.8275 19.3459C22.0729 19.3456 22.2722 19.1436 22.2722 18.8945L22.2739 9.4162C22.2739 8.4191 23.0703 7.6108 24.0527 7.6108C25.0341 7.61206 25.8315 8.41988 25.8315 9.4162V21.3928C26.0245 21.3303 26.2093 21.2299 26.3752 21.0913L28.6126 18.8452C29.5554 17.8998 31.1343 18.1637 31.7272 19.3671C31.9996 19.9206 32.0021 20.5735 31.7324 21.1284L30.2003 24.2772L28.5031 28.4487C26.6457 33.0177 22.2555 35.9993 17.3858 36C17.313 36 17.2392 35.9949 17.1669 35.9929C17.0863 35.9947 17.0046 36 16.9237 36C12.5755 35.9999 9.02392 32.4609 8.97653 28.0414C8.95554 26.0828 8.94289 23.9847 8.93832 22.128C8.93736 22.1034 8.93311 22.0789 8.93311 22.054V13.027C8.93311 12.0299 9.72949 11.2216 10.7119 11.2216C11.6932 11.2228 12.4907 12.0307 12.4907 13.027V18.9122C12.4998 19.1532 12.6939 19.3459 12.9336 19.3459C13.179 19.3456 13.3783 19.1437 13.3783 18.8945L13.3801 9.4162C13.3801 8.4191 14.1764 7.6108 15.1588 7.6108C16.1402 7.612 16.9376 8.41984 16.9376 9.4162V18.9122C16.9468 19.1532 17.1408 19.3459 17.3806 19.3459C17.6259 19.3456 17.8253 19.1436 17.8253 18.8945L17.827 5.8054C17.827 4.8083 18.6234 4 19.6058 4Z" fill="white"/>
</svg>
